<svg id="Layer_1" data-name="Layer 1" xmlns="http://www.w3.org/2000/svg" viewBox="0 0 64 64"><title>air-handler-fan</title><path d="M32,28.8a3.2,3.2,0,0,0,0,6.4h0a3.2,3.2,0,0,0,3.2-3.2h0A3.2,3.2,0,0,0,32,28.8h0M33.55.05c14.38,0,14.73,11.4,7.19,15.18-3.16,1.56-4.57,4.92-5.18,7.89a9.8,9.8,0,0,1,3.9,2.9C51.28,19.63,64,22.16,64,33.6,64,48,52.59,48.3,48.82,40.72c-1.59-3.16-5-4.57-8-5.17A10.41,10.41,0,0,1,38,39.48C44.32,51.27,41.79,64,30.35,64,16,64,15.69,52.51,23.23,48.74c3.13-1.56,4.54-4.89,5.18-7.83a9.87,9.87,0,0,1-4-2.93C12.65,44.3,0,41.81,0,30.4,0,16,11.37,15.67,15.15,23.25c1.59,3.16,5,4.53,7.92,5.14A9.34,9.34,0,0,1,26,24.49C19.65,12.7,22.17.05,33.55.05Z"/></svg>