<svg id="Layer_1" data-name="Layer 1" xmlns="http://www.w3.org/2000/svg" viewBox="0 0 64 64"><title>building</title><g id="P3FOHv.tif"><path d="M15.69,15H28.85V11.82h4.79V2.18h1.49v9.57h3.3V7H40v4.74h4.66V15H47.9v1c0,8.44,0,25.34,0,25.34l3.23,5.12s0-.25,0,9.05v1.36h4.8v3.32H64v1.65H0V60.2H7.58V56.89h5v-1c0-15.64,0-28.07,0-28.07l3.27-4.11Zm22.6,28.57h6.33V37.28H38.29Zm-9.51,0H35.1V37.28H28.78Zm15.81-19V18.3H38.33v6.28ZM35.1,34.11V27.79H28.83v6.32Zm3.21,0H43c1.65,0,1.65,0,1.65-1.62v-4.7H38.31ZM28.8,24.57h6.3V18.31H28.8Zm-3.37,3.25H19.05c0,2,0,3.89,0,5.8a.71.71,0,0,0,.49.5q2.67,0,5.34,0a.72.72,0,0,0,.5-.49C25.45,31.72,25.43,29.81,25.43,27.82Zm-6.31,9.43v6.31h6.25V37.25Zm6.32-12.67c0-2,0-3.92,0-5.83,0-.45-.23-.52-.6-.52H19.1v6.35Z"/></g></svg>