<svg id="Layer_1" data-name="Layer 1" xmlns="http://www.w3.org/2000/svg" viewBox="0 0 64 64"><title>equipment-chiller</title><path d="M61.89,47.18a25.74,25.74,0,0,0-2.27-6.88,82.53,82.53,0,0,0-8.3-13.72C50,24.73,48.59,22.91,47.17,21l-.41.5c-2,2.52-3.9,5.11-5.7,7.76L36.62,30.4l-5.37-3.1,1.2-2.07L31.16,23l5.41-3.12,8,2.29.91-3.2-5-1.41,4.9-2.8.2-2.25-2-.94-4.9,2.83L40,9.72l-3.2-.91-2.25,8-5.29,3-1.16-2H25.7v-6.1l5.77-5.92L29.06,3.46,25.7,7V1.29L23.86,0,22,1.29V6.94l-3.7-3.58L16,5.76l6,5.82v6.24H19.58l-1.19,2.06L13,16.77l-2.25-8-3.2.91L8.87,14.4,4,11.57l-2,.94.22,2.25,4.89,2.82L2.08,19,3,22.19l8-2.29,5.51,3.2-1.22,2.13,1.16,2L11,30.41l-8-2-.8,3.21,4.71,1.19L2.17,35.51,2,37.74l2,.95L8.72,36,7.47,41l3.21.8,2-8.11,5.6-3.2,1.29,2.23h2.45v6.46L16,45l2.3,2.4,3.71-3.59v5.45l1.84,1.29,1.82-1.29V43.72l3.39,3.49,2.41-2.31L25.75,39V32.67h2.46l1.2-2.17,5.49,3.2,1,4a47.4,47.4,0,0,0-2.63,5.92,15.14,15.14,0,0,0-.62,9.05,14.79,14.79,0,0,0,5.06,7.95A14.91,14.91,0,0,0,60.8,55.07,14.06,14.06,0,0,0,61.89,47.18ZM28.37,25.66l-1.85,3.2-.27.49H21.49l-2.4-4.12,2.4-4.11h4.76l.21.35,1.83,3.2.32.56Z"/></svg>