<svg id="Layer_1" data-name="Layer 1" xmlns="http://www.w3.org/2000/svg" viewBox="0 0 64 64"><title>system-area-vas</title><path d="M50.07,21.19a10.61,10.61,0,0,0-6.15,2L25,11.91a9.54,9.54,0,0,0,.12-1.21A10.7,10.7,0,1,0,9.93,20.4L9.67,43.48a10.7,10.7,0,1,0,15,9.82,9.56,9.56,0,0,0-.12-1.2L43.9,40.62a10.7,10.7,0,1,0,6.17-19.43ZM7.34,10.7a7.06,7.06,0,1,1,7.06,7.06A7.06,7.06,0,0,1,7.34,10.7Zm6.59,49.66A7.06,7.06,0,1,1,21,53.3,7.06,7.06,0,0,1,13.93,60.36ZM39.49,33.09,20.1,44.57a11.85,11.85,0,0,0-1.7-1l.26-23.08a12.25,12.25,0,0,0,1.9-1.08L39.49,30.68a9.72,9.72,0,0,0-.12,1.21A9.56,9.56,0,0,0,39.49,33.09ZM50.07,39a7.06,7.06,0,1,1,7.06-7.06A7.06,7.06,0,0,1,50.07,39Z"/></svg>